<?xml version="1.0" encoding="UTF-8"?>
<svg id="Layer_2" data-name="Layer 2" xmlns="http://www.w3.org/2000/svg" viewBox="0 0 524.64 255.89">
  <defs>
    <style>
      .cls-1 {
        fill: #222;
      }
    </style>
  </defs>
  <g id="Layer_1-2" data-name="Layer 1">
    <g>
      <path class="cls-1" d="M46.96,209.44v24.24c0,13.69-9.53,22.21-23.43,22.21S0,247.37,0,233.68v-24.24c0-13.69,8.42-22.21,23.53-22.21,13.89,0,23.43,8.52,23.43,22.21ZM12.68,209.64v23.84c0,6.69,3.96,11.06,10.85,11.06s10.75-4.36,10.75-11.06v-23.84c0-6.69-3.96-11.06-10.75-11.06s-10.85,4.36-10.85,11.06Z"/>
      <path class="cls-1" d="M64.56,254.87c-1.12,0-1.83-.71-1.83-1.83v-62.98c0-1.12.71-1.83,1.83-1.83h21.4c13.29,0,23.02,8.62,23.02,21.6,0,13.69-9.74,22.31-23.02,22.31h-10.55v20.89c0,1.12-.71,1.83-1.82,1.83h-9.03ZM84.85,199.29h-9.43v21.81h9.43c7,0,11.26-4.26,11.26-10.95s-4.26-10.85-11.26-10.85Z"/>
      <path class="cls-1" d="M119.29,199.6c-1.01,0-1.72-.71-1.72-1.83v-7.71c0-1.12.71-1.83,1.72-1.83h40.98c1.01,0,1.72.71,1.72,1.83v7.71c0,1.12-.71,1.83-1.72,1.83h-14.1v53.45c0,1.12-.81,1.83-1.82,1.83h-9.03c-1.12,0-1.83-.71-1.83-1.83v-53.45h-14.2Z"/>
      <path class="cls-1" d="M218.58,209.44v24.24c0,13.69-9.53,22.21-23.43,22.21s-23.53-8.52-23.53-22.21v-24.24c0-13.69,8.42-22.21,23.53-22.21,13.89,0,23.43,8.52,23.43,22.21ZM184.3,209.64v23.84c0,6.69,3.96,11.06,10.85,11.06s10.75-4.36,10.75-11.06v-23.84c0-6.69-3.96-11.06-10.75-11.06s-10.85,4.36-10.85,11.06Z"/>
      <path class="cls-1" d="M259.5,233.07c-1.22,0-2.13-.51-2.64-1.52l-10.75-19.68v41.18c0,1.12-.71,1.83-1.83,1.83h-8.11c-1.12,0-1.83-.71-1.83-1.83v-62.98c0-1.12.71-1.83,1.83-1.83h7.71c1.22,0,2.23.51,2.74,1.52l14.61,28.2,14.2-28.2c.51-1.01,1.52-1.52,2.74-1.52h7.71c1.01,0,1.83.71,1.83,1.83v62.98c0,1.12-.81,1.83-1.83,1.83h-8.72c-1.01,0-1.72-.71-1.72-1.83v-41.28l-10.24,19.78c-.51,1.01-1.52,1.52-2.74,1.52h-2.94Z"/>
      <path class="cls-1" d="M343.84,224.85c0,1.01-.71,1.72-1.72,1.72h-23.23v16.94h26.98c1.12,0,1.82.71,1.82,1.83v7.71c0,1.12-.71,1.83-1.82,1.83h-37.83c-1.12,0-1.83-.71-1.83-1.83v-62.98c0-1.12.71-1.83,1.83-1.83h36.92c1.12,0,1.83.71,1.83,1.83v7.71c0,1.12-.71,1.83-1.83,1.83h-26.07v15.82h23.23c1.02,0,1.72.71,1.72,1.83v7.61Z"/>
      <path class="cls-1" d="M363.77,199.6c-1.01,0-1.72-.71-1.72-1.83v-7.71c0-1.12.71-1.83,1.72-1.83h40.98c1.01,0,1.72.71,1.72,1.83v7.71c0,1.12-.71,1.83-1.72,1.83h-14.1v53.45c0,1.12-.81,1.83-1.82,1.83h-9.03c-1.12,0-1.82-.71-1.82-1.83v-53.45h-14.2Z"/>
      <path class="cls-1" d="M434.42,253.05c0,1.12-.71,1.83-1.82,1.83h-9.03c-1.12,0-1.83-.71-1.83-1.83v-62.98c0-1.12.71-1.83,1.83-1.83h21.6c13.19,0,22.82,8.22,22.82,20.69,0,8.62-4.06,15.11-10.55,18.56l10.04,25.05c.51,1.32-.2,2.33-1.12,2.33h-10.04c-1.12,0-1.93-.51-2.43-1.72l-8.93-22.72h-10.55v22.62ZM443.86,199.29h-9.43v20.08h9.43c7,0,11.26-3.96,11.26-10.14s-4.26-9.94-11.26-9.94Z"/>
      <path class="cls-1" d="M506.44,253.05c0,1.12-.71,1.83-1.72,1.83h-9.03c-1.12,0-1.83-.71-1.83-1.83v-24.95l-18.05-38.24c-.41-.91.1-1.62,1.12-1.62h9.74c1.22,0,2.03.51,2.54,1.62l11.26,25.86,11.26-25.86c.51-1.12,1.32-1.62,2.53-1.62h9.23c.91,0,1.42.71,1.02,1.62l-18.05,38.03v25.15Z"/>
      <path class="cls-1" d="M173.33,152.63c-42.08,0-76.32-34.23-76.32-76.31S131.25,0,173.33,0s76.31,34.23,76.31,76.31-34.23,76.31-76.31,76.31ZM173.33,31.51c-24.71,0-44.81,20.1-44.81,44.81s20.1,44.81,44.81,44.81,44.81-20.1,44.81-44.81-20.1-44.81-44.81-44.81Z"/>
      <path class="cls-1" d="M343.12,152.63c-42.08,0-76.31-34.23-76.31-76.31S301.04,0,343.12,0s76.31,34.23,76.31,76.31-34.23,76.31-76.31,76.31ZM343.12,31.51c-24.71,0-44.81,20.1-44.81,44.81s20.1,44.81,44.81,44.81,44.81-20.1,44.81-44.81-20.1-44.81-44.81-44.81Z"/>
      <path class="cls-1" d="M60.83,17.78H19.04c-.91,0-1.64.74-1.64,1.64v30.24c0,.91.74,1.64,1.64,1.64h11.94v81.79c0,.92.74,1.66,1.66,1.66h28.19c.92,0,1.66-.74,1.66-1.66V19.44c0-.92-.74-1.66-1.66-1.66Z"/>
      <path class="cls-1" d="M487.88,17.78h-41.8c-.91,0-1.64.74-1.64,1.64v30.24c0,.91.74,1.64,1.64,1.64h11.94v81.79c0,.92.74,1.66,1.66,1.66h28.19c.92,0,1.66-.74,1.66-1.66V19.44c0-.92-.74-1.66-1.66-1.66Z"/>
    </g>
  </g>
</svg>